<?xml version="1.0" encoding="utf-8"?>
<!-- Generator: Adobe Illustrator 18.0.0, SVG Export Plug-In . SVG Version: 6.00 Build 0)  -->
<!DOCTYPE svg PUBLIC "-//W3C//DTD SVG 1.1//EN" "http://www.w3.org/Graphics/SVG/1.1/DTD/svg11.dtd">
<svg version="1.1" id="图层_1" xmlns="http://www.w3.org/2000/svg" xmlns:xlink="http://www.w3.org/1999/xlink" x="0px" y="0px"
	 viewBox="0 0 96 96" enable-background="new 0 0 96 96" xml:space="preserve">
<rect x="0" fill="#31343B" width="96" height="96"/>
<circle fill="#FFFFFF" cx="48" cy="48" r="48"/>
<path opacity="0.6" fill="#64DD17" enable-background="new    " d="M48,0v48L6.4,72C14.7,86.4,30.2,96,48,96c26.5,0,48-21.5,48-48
	S74.5,0,48,0z"/>
<g>
	<g>
		<path fill="#31343B" d="M43.9,4V3.2c0.5-0.4,1.1-0.7,1.7-1h0.7v6.7h-0.7V3l0,0c-0.2,0.1-0.4,0.2-0.8,0.5S44.1,3.8,43.9,4z"/>
		<path fill="#31343B" d="M47.9,3.9L47.9,3.9c0-0.3,0-0.5,0.1-0.7s0.2-0.4,0.4-0.6s0.4-0.3,0.7-0.4S49.6,2,49.9,2
			c0.6,0,1.1,0.2,1.5,0.5S52,3.3,52,3.8c0,0.2,0,0.4-0.1,0.5c-0.1,0.2-0.1,0.3-0.2,0.5c-0.1,0.2-0.2,0.3-0.3,0.5
			c-0.1,0.1-0.2,0.3-0.4,0.5l-0.1,0.1L49,8.1l0,0h3.1v0.7h-4.2V8.3l2.5-2.9c0.1-0.1,0.2-0.3,0.3-0.3s0.1-0.2,0.2-0.3
			c0.1-0.1,0.2-0.3,0.2-0.4s0.1-0.3,0.1-0.4c0-0.4-0.1-0.7-0.4-0.9c-0.2-0.2-0.5-0.3-0.9-0.3s-0.7,0.1-1,0.4
			c-0.2,0.2-0.4,0.6-0.4,0.9l0,0h-0.6V3.9z"/>
	</g>
	<g>
		<path fill="#31343B" d="M45.7,90.8c0-1.2,0.2-2.2,0.7-2.8s1.1-1,1.8-1c0.3,0,0.6,0,0.8,0.1s0.4,0.2,0.6,0.4
			c0.2,0.2,0.3,0.3,0.4,0.5c0.1,0.2,0.2,0.4,0.2,0.6h-0.8c0-0.2-0.1-0.5-0.4-0.7c-0.2-0.2-0.5-0.3-0.9-0.3c-0.2,0-0.4,0.1-0.6,0.2
			s-0.4,0.3-0.5,0.5c-0.2,0.2-0.3,0.5-0.4,0.9c-0.1,0.4-0.2,0.8-0.2,1.3l0,0c0.1-0.3,0.3-0.5,0.6-0.7s0.7-0.3,1.1-0.3
			c0.3,0,0.5,0,0.8,0.1s0.5,0.2,0.7,0.4c0.2,0.2,0.4,0.4,0.5,0.7c0.1,0.3,0.2,0.6,0.2,0.9c0,0.5-0.1,0.9-0.3,1.2s-0.5,0.6-0.8,0.8
			C48.9,93.9,48.5,94,48,94c-0.7,0-1.3-0.3-1.7-0.8C45.9,92.7,45.7,91.9,45.7,90.8z M46.5,91.8c0,0.5,0.1,0.9,0.4,1.2
			c0.3,0.3,0.7,0.4,1.1,0.4c0.4,0,0.8-0.1,1.1-0.4s0.4-0.7,0.4-1.2c0-0.3,0-0.5-0.1-0.7s-0.2-0.4-0.4-0.5c-0.1-0.1-0.3-0.2-0.5-0.3
			c-0.2-0.1-0.4-0.1-0.6-0.1c-0.4,0-0.8,0.1-1.1,0.4C46.7,90.9,46.5,91.3,46.5,91.8z"/>
	</g>
</g>
<g>
	<path fill="#31343B" d="M89.5,49.7h0.7c0,0.4,0.2,0.6,0.4,0.9s0.6,0.3,1,0.3c0.5,0,0.9-0.1,1.2-0.4s0.4-0.6,0.4-1s-0.1-0.7-0.4-0.9
		s-0.7-0.3-1.1-0.3H91v-0.7h0.6c0.4,0,0.7-0.1,1-0.3s0.4-0.5,0.4-0.9c0-0.3-0.1-0.6-0.4-0.8c-0.2-0.2-0.6-0.3-1-0.3
		c-0.2,0-0.4,0-0.6,0.1s-0.3,0.2-0.4,0.3s-0.2,0.2-0.2,0.4c-0.1,0.1-0.1,0.3-0.1,0.4h-0.7c0-0.2,0-0.4,0.1-0.6
		c0.1-0.2,0.2-0.4,0.4-0.6c0.2-0.2,0.4-0.3,0.6-0.4c0.3-0.1,0.5-0.2,0.9-0.2c0.6,0,1.1,0.2,1.5,0.5s0.6,0.7,0.6,1.2
		c0,0.4-0.1,0.8-0.4,1.1S92.7,48,92.4,48l0,0c0.2,0,0.3,0.1,0.5,0.1c0.2,0.1,0.3,0.2,0.5,0.3s0.3,0.3,0.4,0.5s0.2,0.4,0.2,0.7
		c0,0.6-0.2,1-0.6,1.4s-1,0.6-1.7,0.6c-0.3,0-0.6,0-0.9-0.1s-0.5-0.2-0.7-0.4s-0.3-0.4-0.4-0.6C89.6,50.1,89.5,49.9,89.5,49.7z"/>
</g>
<g>
	<path fill="#31343B" d="M2,46.8c0-0.3,0.1-0.6,0.2-0.9s0.3-0.5,0.5-0.7s0.4-0.3,0.7-0.4c0.3-0.1,0.5-0.2,0.8-0.2
		c1.6,0,2.4,1.1,2.4,3.3c0,1.1-0.2,2-0.7,2.7c-0.4,0.6-1,0.9-1.8,0.9c-0.3,0-0.6-0.1-0.9-0.2c-0.3-0.1-0.5-0.2-0.6-0.4
		c-0.2-0.2-0.3-0.4-0.4-0.6S2.1,50,2.1,49.7h0.7c0,0.1,0.1,0.3,0.1,0.4s0.2,0.2,0.3,0.4c0.1,0.1,0.3,0.2,0.4,0.3
		c0.2,0.1,0.4,0.1,0.6,0.1c0.6,0,1-0.2,1.3-0.7S6,49,6,48.1l0,0c-0.1,0.3-0.3,0.5-0.6,0.7S4.5,49,4.1,49c-0.3,0-0.5,0-0.8-0.1
		c-0.2-0.1-0.5-0.2-0.7-0.4s-0.4-0.4-0.5-0.7C2.1,47.5,2,47.1,2,46.8z M2.7,46.8c0,0.5,0.1,0.9,0.4,1.2s0.6,0.4,1.1,0.4
		c0.4,0,0.8-0.1,1.1-0.4s0.5-0.7,0.5-1.1c0-0.5-0.1-0.9-0.4-1.2s-0.7-0.4-1.1-0.4c-0.2,0-0.4,0-0.6,0.1c-0.2,0.1-0.3,0.2-0.5,0.3
		c-0.1,0.1-0.3,0.3-0.3,0.5C2.8,46.3,2.7,46.5,2.7,46.8z"/>
</g>
<g>
	<g>
		<line fill="none" stroke="#31343B" stroke-linecap="square" stroke-miterlimit="10" x1="28" y1="82.7" x2="25.5" y2="87"/>
		<line fill="none" stroke="#31343B" stroke-linecap="square" stroke-miterlimit="10" x1="70.5" y1="9.1" x2="68" y2="13.4"/>
	</g>
	<g>
		<line fill="none" stroke="#31343B" stroke-linecap="square" stroke-miterlimit="10" x1="13.4" y1="68" x2="9" y2="70.5"/>
		<line fill="none" stroke="#31343B" stroke-linecap="square" stroke-miterlimit="10" x1="87" y1="25.5" x2="82.6" y2="28"/>
	</g>
	<g>
		<line fill="none" stroke="#31343B" stroke-linecap="square" stroke-miterlimit="10" x1="13.4" y1="28" x2="9" y2="25.5"/>
		<line fill="none" stroke="#31343B" stroke-linecap="square" stroke-miterlimit="10" x1="87" y1="70.5" x2="82.6" y2="68"/>
	</g>
	<g>
		<line fill="none" stroke="#31343B" stroke-linecap="square" stroke-miterlimit="10" x1="28" y1="13.4" x2="25.5" y2="9.1"/>
		<line fill="none" stroke="#31343B" stroke-linecap="square" stroke-miterlimit="10" x1="70.5" y1="87" x2="68" y2="82.7"/>
	</g>
</g>
<polyline fill="none" stroke="#31343B" stroke-width="3" stroke-linecap="square" stroke-miterlimit="10" points="48,53 48,48 
	48,14 "/>
<polyline fill="none" stroke="#31343B" stroke-width="3" stroke-linecap="square" stroke-miterlimit="10" points="52.3,45.5 48,48 
	23.8,62 "/>
</svg>
